Coordinates
version=1
nRows=15
nColumns=34
inDegrees=yes

Units are S.I. units (second, meters, Newtons, ...)
Angles are in degrees.

endheader
time	pelvis_tilt	pelvis_list	pelvis_rotation	pelvis_tx	pelvis_ty	pelvis_tz	hip_flexion_r	hip_adduction_r	hip_rotation_r	knee_angle_r	ankle_angle_r	subtalar_angle_r	mtp_angle_r	hip_flexion_l	hip_adduction_l	hip_rotation_l	knee_angle_l	socket_flexion	socket_adduction	socket_rotation	socket_tx	socket_ty	socket_tz	pros_ankle_rx	pros_ankle_ry	pros_ankle_rz	pros_ankle_tx	pros_ankle_ty	pros_ankle_tz	foot_flex	lumbar_extension	lumbar_bending	lumbar_rotation
      0.30000000	      4.34593805	     -0.02855350	     -5.88592846	     -0.33398163	      1.06006500	      0.32260503	      5.43696802	     -6.41390083	     -5.53156400	    -58.71294699	      3.52795814	     18.23458148	     23.28194075	     -6.54503675	      4.20362311	     -3.39922228	     10.91724983	     18.05255047	      0.00000000	      0.00000000	      0.00000000	      0.00000000	      0.00000000	      0.00000000	      0.00000000	      0.00000000	      0.00000000	      0.00000000	      0.00000000	      5.72683266	    -13.36924883	     -9.54716557	    -21.79032132
      0.30416667	      4.34072495	     -0.19807130	     -5.75856456	     -0.32865833	      1.06065283	      0.32229599	      5.93208619	     -6.17765546	     -5.63925387	    -58.44994653	      4.32989835	     17.98733922	     23.21563694	     -6.93754696	      4.05690237	     -3.29263565	     10.94735776	     17.92656011	      0.00000000	      0.00000000	      0.00000000	      0.00000000	      0.00000000	      0.00000000	      0.00000000	      0.00000000	      0.00000000	      0.00000000	      0.00000000	      5.83310313	    -13.35793928	     -9.26996425	    -21.91538924
      0.30833333	      4.32585885	     -0.36904921	     -5.64482668	     -0.32333143	      1.06121041	      0.32202010	      6.43289836	     -5.95341461	     -5.77430275	    -58.13756338	      5.02154397	     17.78395488	     23.15945220	     -7.31046202	      3.90826037	     -3.23728426	     10.95806032	     17.79801114	      0.00000000	      0.00000000	      0.00000000	      0.00000000	      0.00000000	      0.00000000	      0.00000000	      0.00000000	      0.00000000	      0.00000000	      0.00000000	      5.93018903	    -13.35491299	     -9.03215211	    -22.01627913
      0.31250000	      4.31803756	     -0.55333482	     -5.52636937	     -0.31814238	      1.06176617	      0.32170218	      6.92039173	     -5.68227727	     -5.85231189	    -57.79675703	      5.77420452	     17.55590121	     23.06799747	     -7.68700419	      3.73994952	     -3.11366803	     10.98530684	     17.67607579	      0.00000000	      0.00000000	      0.00000000	      0.00000000	      0.00000000	      0.00000000	      0.00000000	      0.00000000	      0.00000000	      0.00000000	      0.00000000	      6.03474111	    -13.34359648	     -8.72356017	    -22.14205991
      0.31666667	      4.29904615	     -0.73955541	     -5.41868780	     -0.31292837	      1.06228676	      0.32143100	      7.41109555	     -5.41526254	     -5.95008080	    -57.40933404	      6.41484510	     17.35327044	     22.95787414	     -8.04959901	      3.56924309	     -3.03511669	     11.00920039	     17.56173649	      0.00000000	      0.00000000	      0.00000000	      0.00000000	      0.00000000	      0.00000000	      0.00000000	      0.00000000	      0.00000000	      0.00000000	      0.00000000	      6.13633130	    -13.33410948	     -8.44341776	    -22.25359873
      0.32083333	      4.32604966	     -0.77873798	     -5.38830984	     -0.30784686	      1.06271854	      0.32127023	      7.92673520	     -5.36687157	     -6.03650823	    -57.05972452	      6.54985602	     17.31596858	     22.94349065	     -8.42854668	      3.57362971	     -3.01471207	     10.98442290	     17.40256940	      0.00000000	      0.00000000	      0.00000000	      0.00000000	      0.00000000	      0.00000000	      0.00000000	      0.00000000	      0.00000000	      0.00000000	      0.00000000	      6.20340179	    -13.37981636	     -8.41316356	    -22.26948022
      0.32500000	      4.26875838	     -1.10612505	     -5.20811361	     -0.30261523	      1.06328012	      0.32090762	      8.36187278	     -4.88908607	     -6.15836005	    -56.51950649	      7.60463746	     17.07302488	     22.84025609	     -8.74651547	      3.23286359	     -2.91459132	     10.99577756	     17.31235293	      0.00000000	      0.00000000	      0.00000000	      0.00000000	      0.00000000	      0.00000000	      0.00000000	      0.00000000	      0.00000000	      0.00000000	      0.00000000	      6.33961174	    -13.34192397	     -7.89286732	    -22.42179869
      0.32916667	      4.23425262	     -1.28400983	     -5.11814090	     -0.29742404	      1.06371434	      0.32071375	      8.83556225	     -4.62779552	     -6.27624779	    -55.99947290	      8.06488029	     16.91938672	     22.70773869	     -9.08605999	      3.07001282	     -2.89418988	     11.03400598	     17.21785870	      0.00000000	      0.00000000	      0.00000000	      0.00000000	      0.00000000	      0.00000000	      0.00000000	      0.00000000	      0.00000000	      0.00000000	      0.00000000	      6.43179635	    -13.36725203	     -7.65844922	    -22.52292660
      0.33333333	      4.21739031	     -1.51037102	     -5.00597568	     -0.29232967	      1.06416848	      0.32047882	      9.27473786	     -4.28221937	     -6.35001978	    -55.45051651	      8.62074254	     16.74796114	     22.51532423	     -9.44029809	      2.84449574	     -2.81327694	     11.07251140	     17.14743038	      0.00000000	      0.00000000	      0.00000000	      0.00000000	      0.00000000	      0.00000000	      0.00000000	      0.00000000	      0.00000000	      0.00000000	      0.00000000	      6.53860742	    -13.35789417	     -7.30066516	    -22.64437349
      0.33750000	      4.27800917	     -1.76842803	     -4.95022482	     -0.28720305	      1.06468181	      0.32036056	      9.61853284	     -3.88105288	     -6.36329282	    -54.88285530	      9.27330536	     16.51972157	     19.45261974	     -9.98937223	      2.60341347	     -2.80030757	     11.39747847	     17.24516507	      0.00000000	      0.00000000	      0.00000000	      0.00000000	      0.00000000	      0.00000000	      0.00000000	      0.00000000	      0.00000000	      0.00000000	      0.00000000	      6.63096722	    -13.45648511	     -6.94331965	    -22.73208031
      0.34166667	      4.24587793	     -1.93637418	     -4.85612035	     -0.28217249	      1.06505289	      0.32018832	     10.07763920	     -3.61081324	     -6.45306358	    -54.28352688	      9.70618433	     16.48211459	     19.45264776	    -10.27817254	      2.44035926	     -2.75970432	     11.33671070	     17.11625730	      0.00000000	      0.00000000	      0.00000000	      0.00000000	      0.00000000	      0.00000000	      0.00000000	      0.00000000	      0.00000000	      0.00000000	      0.00000000	      6.73310729	    -13.49004448	     -6.70821524	    -22.79577876
      0.34583333	      4.27403294	     -1.94018279	     -4.85893070	     -0.27726710	      1.06525679	      0.32015992	     10.58382915	     -3.58277240	     -6.52838985	    -53.82652499	      9.80330758	     16.46493865	     19.44795531	    -10.63483882	      2.47410984	     -2.73434863	     11.30332668	     16.97554590	      0.00000000	      0.00000000	      0.00000000	      0.00000000	      0.00000000	      0.00000000	      0.00000000	      0.00000000	      0.00000000	      0.00000000	      0.00000000	      6.80476840	    -13.54844599	     -6.69278676	    -22.80622671
      0.35000000	      4.20381429	     -2.28616264	     -4.66198216	     -0.27208642	      1.06573109	      0.31989932	     10.91778598	     -3.04581782	     -6.64238799	    -52.96660814	     10.46562421	     16.39162267	     19.40623650	    -10.89338370	      2.09527764	     -2.69990134	     11.26259031	     16.88834095	      0.00000000	      0.00000000	      0.00000000	      0.00000000	      0.00000000	      0.00000000	      0.00000000	      0.00000000	      0.00000000	      0.00000000	      0.00000000	      6.95181573	    -13.53772484	     -6.22916730	    -22.94767233
      0.35416667	      4.22671477	     -2.28160224	     -4.66106753	     -0.26721135	      1.06586969	      0.31988463	     11.41456782	     -3.01510611	     -6.71622645	    -52.45934740	     10.56097913	     16.36936964	     19.39265238	    -11.24052667	      2.13615897	     -2.67843739	     11.23631877	     16.76374306	      0.00000000	      0.00000000	      0.00000000	      0.00000000	      0.00000000	      0.00000000	      0.00000000	      0.00000000	      0.00000000	      0.00000000	      0.00000000	      7.02496239	    -13.60367404	     -6.20103202	    -22.96311037
      0.35833333	      4.18817912	     -2.69258200	     -4.44127550	     -0.26195411	      1.06636176	      0.31956697	     11.64748306	     -2.40534481	     -6.84978306	    -51.46121963	     11.04268140	     16.15970170	     19.16762927	    -11.58562586	      1.68341319	     -2.60918668	     11.31962959	     16.75231827	      0.00000000	      0.00000000	      0.00000000	      0.00000000	      0.00000000	      0.00000000	      0.00000000	      0.00000000	      0.00000000	      0.00000000	      0.00000000	      7.16671435	    -13.63243319	     -5.55039368	    -23.20751325
